<?xml version="1.0" encoding="UTF-8"?>
<svg version="1.1" xmlns="http://www.w3.org/2000/svg" width="64" height="64">
<path d="M0 0 C19.14 0 38.28 0 58 0 C58 14.52 58 29.04 58 44 C53.71 44 49.42 44 45 44 C44.34 42.68 43.68 41.36 43 40 C45.31 40 47.62 40 50 40 C50.33 38.68 50.66 37.36 51 36 C51.99 36 52.98 36 54 36 C54 26.76 54 17.52 54 8 C52.68 7.67 51.36 7.34 50 7 C50 6.01 50 5.02 50 4 C36.14 4 22.28 4 8 4 C7.67 5.32 7.34 6.64 7 8 C6.01 8 5.02 8 4 8 C4 17.24 4 26.48 4 36 C5.32 36.33 6.64 36.66 8 37 C8 37.99 8 38.98 8 40 C10.64 40 13.28 40 16 40 C15.01 41.32 14.02 42.64 13 44 C8.71 44 4.42 44 0 44 C0 29.48 0 14.96 0 0 Z " fill="#218BE6" transform="translate(3,10)"/>
<path d="M0 0 C0 1.32 0 2.64 0 4 C1.32 4.33 2.64 4.66 4 5 C3.67 5.99 3.34 6.98 3 8 C3.33 8.99 3.66 9.98 4 11 C3.01 11.33 2.02 11.66 1 12 C0.67 12.99 0.34 13.98 0 15 C-6.84824903 16.40077821 -6.84824903 16.40077821 -10 15 C-10.33 14.01 -10.66 13.02 -11 12 C-11.99 11.34 -12.98 10.68 -14 10 C-13.67 9.01 -13.34 8.02 -13 7 C-13.33 6.01 -13.66 5.02 -14 4 C-12.68 4 -11.36 4 -10 4 C-9.8453125 3.0409375 -9.8453125 3.0409375 -9.6875 2.0625 C-9.460625 1.381875 -9.23375 0.70125 -9 0 C-5.52176885 -1.15941038 -3.54104422 -0.70820884 0 0 Z " fill="#208CE7" transform="translate(37,34)"/>
<path d="M0 0 C10.89 0 21.78 0 33 0 C33 1.32 33 2.64 33 4 C22.11 4 11.22 4 0 4 C0 2.68 0 1.36 0 0 Z " fill="#228BE6" transform="translate(16,26)"/>
<path d="M0 0 C6.6 0 13.2 0 20 0 C20 1.32 20 2.64 20 4 C13.4 4 6.8 4 0 4 C0 2.68 0 1.36 0 0 Z " fill="#228BE6" transform="translate(22,18)"/>
<path d="M0 0 C3.35620271 1.38877354 5.07298728 2.91677965 7 6 C7 6.66 7 7.32 7 8 C5.35 8 3.7 8 2 8 C1.67 9.65 1.34 11.3 1 13 C0.34 13 -0.32 13 -1 13 C-3.03435531 9.27034861 -4 7.33094958 -4 3 C-2.68 3 -1.36 3 0 3 C0 2.01 0 1.02 0 0 Z " fill="#218BE6" transform="translate(39,48)"/>
<path d="M0 0 C0.66 0 1.32 0 2 0 C2 0.99 2 1.98 2 3 C3.32 3 4.64 3 6 3 C5.49287967 6.71888239 4.88391785 9.73454239 3 13 C2.34 13 1.68 13 1 13 C0.67 11.35 0.34 9.7 0 8 C-1.65 8 -3.3 8 -5 8 C-3.63055898 5.05043472 -2.12169591 2.47531189 0 0 Z " fill="#228AE6" transform="translate(23,48)"/>
</svg>
